<svg width="1440" height="661" viewBox="0 0 1440 661" fill="none" xmlns="http://www.w3.org/2000/svg">
<g clip-path="url(#clip0_1_4451)">
<mask id="mask0_1_4451" style="mask-type:luminance" maskUnits="userSpaceOnUse" x="-243" y="0" width="1926" height="665">
<path d="M1683 0H-243V665H1683V0Z" fill="white"/>
</mask>
<g mask="url(#mask0_1_4451)">
<path d="M485.053 273H391.09L423.601 252.893H508.293L485.053 273Z" fill="#2A2A35"/>
<path d="M579.043 273H485.055L508.295 252.893H592.962L579.043 273Z" fill="white"/>
<path d="M673.006 273H579.043L592.962 252.893H677.654L673.006 273Z" fill="#2A2A35"/>
<path d="M766.997 273H673.008L677.656 252.893H762.348L766.997 273Z" fill="white"/>
<path d="M860.955 273H766.992L762.344 252.893H847.036L860.955 273Z" fill="#2A2A35"/>
<path d="M954.946 273H860.958L847.039 252.893H931.706L954.946 273Z" fill="white"/>
<path d="M1048.91 273H954.947L931.707 252.893H1016.4L1048.91 273Z" fill="#2A2A35"/>
<path d="M456.084 298.038H350.539L391.088 273H485.051L456.084 298.038Z" fill="white"/>
<path d="M561.652 298.038H456.082L485.049 273H579.038L561.652 298.038Z" fill="#2A2A35"/>
<path d="M667.227 298.038H561.656L579.042 273H673.005L667.227 298.038Z" fill="white"/>
<path d="M772.771 298.038H667.227L673.005 273H766.993L772.771 298.038Z" fill="#2A2A35"/>
<path d="M878.341 298.038H772.77L766.992 273H860.955L878.341 298.038Z" fill="white"/>
<path d="M983.909 298.038H878.338L860.953 273H954.942L983.909 298.038Z" fill="#2A2A35"/>
<path d="M1089.46 298.038H983.912L954.945 273H1048.91L1089.46 298.038Z" fill="white"/>
<path d="M418.978 330.112H298.59L350.541 298.038H456.085L418.978 330.112Z" fill="#2A2A35"/>
<path d="M539.39 330.112H418.977L456.084 298.038H561.655L539.39 330.112Z" fill="white"/>
<path d="M659.804 330.112H539.391L561.655 298.038H667.226L659.804 330.112Z" fill="#2A2A35"/>
<path d="M780.193 330.112H659.805L667.226 298.038H772.771L780.193 330.112Z" fill="white"/>
<path d="M900.608 330.112H780.195L772.773 298.038H878.344L900.608 330.112Z" fill="#2A2A35"/>
<path d="M1021.02 330.112H900.608L878.344 298.038H983.914L1021.02 330.112Z" fill="white"/>
<path d="M1141.41 330.112H1021.02L983.91 298.038H1089.45L1141.41 330.112Z" fill="#2A2A35"/>
<path d="M369.75 372.689H229.64L298.591 330.112H418.979L369.75 372.689Z" fill="white"/>
<path d="M509.834 372.689H369.75L418.978 330.112H539.392L509.834 372.689Z" fill="#2A2A35"/>
<path d="M649.946 372.689H509.836L539.393 330.112H659.807L649.946 372.689Z" fill="white"/>
<path d="M790.055 372.689H649.945L659.806 330.112H780.194L790.055 372.689Z" fill="#2A2A35"/>
<path d="M930.166 372.689H790.056L780.195 330.112H900.609L930.166 372.689Z" fill="white"/>
<path d="M1070.25 372.689H930.167L900.609 330.112H1021.02L1070.25 372.689Z" fill="#2A2A35"/>
<path d="M1210.36 372.689H1070.25L1021.02 330.112H1141.41L1210.36 372.689Z" fill="white"/>
<path d="M301.237 431.931H133.727L229.641 372.688H369.751L301.237 431.931Z" fill="#2A2A35"/>
<path d="M468.745 431.931H301.234L369.749 372.688H509.833L468.745 431.931Z" fill="white"/>
<path d="M636.257 431.931H468.746L509.834 372.688H649.944L636.257 431.931Z" fill="#2A2A35"/>
<path d="M803.743 431.931H636.258L649.945 372.688H790.055L803.743 431.931Z" fill="white"/>
<path d="M971.253 431.931H803.742L790.055 372.688H930.165L971.253 431.931Z" fill="#2A2A35"/>
<path d="M1138.77 431.931H971.256L930.168 372.688H1070.25L1138.77 431.931Z" fill="white"/>
<path d="M1306.27 431.931H1138.76L1070.25 372.688H1210.36L1306.27 431.931Z" fill="#2A2A35"/>
<path d="M199.415 519.987H-8.82397L133.726 431.932H301.236L199.415 519.987Z" fill="white"/>
<path d="M407.653 519.987H199.414L301.235 431.932H468.746L407.653 519.987Z" fill="#2A2A35"/>
<path d="M615.896 519.987H407.656L468.749 431.932H636.26L615.896 519.987Z" fill="white"/>
<path d="M824.108 519.987H615.895L636.259 431.932H803.744L824.108 519.987Z" fill="#2A2A35"/>
<path d="M1032.35 519.987H824.107L803.743 431.932H971.253L1032.35 519.987Z" fill="white"/>
<path d="M1240.59 519.987H1032.35L971.254 431.932H1138.76L1240.59 519.987Z" fill="#2A2A35"/>
<path d="M1448.83 519.987H1240.59L1138.77 431.932H1306.28L1448.83 519.987Z" fill="white"/>
<path d="M32.1355 664.615H-243L-8.82407 519.987H199.415L32.1355 664.615Z" fill="#2A2A35"/>
<path d="M307.294 664.615H32.1328L199.412 519.987H407.651L307.294 664.615Z" fill="white"/>
<path d="M582.432 664.615H307.297L407.654 519.987H615.893L582.432 664.615Z" fill="#2A2A35"/>
<path d="M857.569 664.615H582.434L615.895 519.987H824.108L857.569 664.615Z" fill="white"/>
<path d="M1132.71 664.615H857.57L824.109 519.987H1032.35L1132.71 664.615Z" fill="#2A2A35"/>
<path d="M1407.87 664.615H1132.71L1032.35 519.987H1240.59L1407.87 664.615Z" fill="white"/>
<path d="M1683 664.615H1407.87L1240.59 519.987H1448.83L1683 664.615Z" fill="#2A2A35"/>
</g>
<g clip-path="url(#clip1_1_4451)">
<path d="M1005 249.741C1005 249.741 1044.67 218.531 1097.28 249.103C1097.28 249.103 1126.44 236.854 1142.16 258.55C1142.16 258.55 1187.36 228.951 1232.51 262.325C1232.51 262.325 1252.51 237.441 1288.54 248.986C1288.54 248.986 1304.55 200.761 1362.88 208.077C1362.88 208.077 1372.74 146.983 1441 146.983V518.983L1005 249.741Z" fill="white"/>
<path d="M1116.14 318.368C1116.14 318.368 1145.7 295.112 1184.9 317.899C1184.9 317.899 1206.64 308.771 1218.35 324.946C1218.35 324.946 1252.02 302.881 1285.67 327.765C1285.67 327.765 1300.58 309.224 1327.42 317.831C1327.42 317.831 1339.35 281.89 1382.8 287.36C1382.8 287.36 1390.16 241.837 1441 241.837V519L1116.14 318.368Z" fill="url(#paint0_linear_1_4451)"/>
<path d="M1223 384.362C1223 384.362 1242.84 368.757 1269.14 384.043C1269.14 384.043 1283.72 377.919 1291.58 388.775C1291.58 388.775 1314.19 373.975 1336.74 390.671C1336.74 390.671 1346.76 378.221 1364.76 384.009C1364.76 384.009 1372.77 359.897 1401.93 363.555C1401.93 363.555 1406.87 333 1441 333V519L1223 384.362Z" fill="url(#paint1_linear_1_4451)"/>
</g>
<g clip-path="url(#clip2_1_4451)">
<path d="M434 249.741C434 249.741 394.327 218.531 341.721 249.103C341.721 249.103 312.562 236.854 296.841 258.55C296.841 258.55 251.642 228.951 206.493 262.325C206.493 262.325 186.489 237.441 150.461 248.986C150.461 248.986 134.454 200.761 76.1198 208.077C76.1198 208.077 66.2604 146.983 -2 146.983V518.983L434 249.741Z" fill="white"/>
<path d="M322.859 318.368C322.859 318.368 293.298 295.112 254.095 317.899C254.095 317.899 232.361 308.771 220.654 324.946C220.654 324.946 186.977 302.881 153.334 327.765C153.334 327.765 138.418 309.224 111.578 317.831C111.578 317.831 99.6525 281.89 56.2003 287.36C56.2003 287.36 48.8435 241.837 -1.99908 241.837V519L322.859 318.368Z" fill="url(#paint2_linear_1_4451)"/>
<path d="M216 384.362C216 384.362 196.163 368.757 169.86 384.043C169.86 384.043 155.281 377.919 147.42 388.775C147.42 388.775 124.813 373.975 102.255 390.671C102.255 390.671 92.2444 378.221 74.2387 384.009C74.2387 384.009 66.2268 359.897 37.0683 363.555C37.0683 363.555 32.1302 333 -2 333V519L216 384.362Z" fill="url(#paint3_linear_1_4451)"/>
</g>
</g>
<defs>
<linearGradient id="paint0_linear_1_4451" x1="1116.14" y1="380.412" x2="1441" y2="380.412" gradientUnits="userSpaceOnUse">
<stop stop-color="white"/>
<stop offset="1" stop-color="#A8E9FD"/>
</linearGradient>
<linearGradient id="paint1_linear_1_4451" x1="1323.75" y1="341.612" x2="1407.67" y2="515.613" gradientUnits="userSpaceOnUse">
<stop stop-color="white"/>
<stop offset="1" stop-color="#A8E9FD"/>
</linearGradient>
<linearGradient id="paint2_linear_1_4451" x1="322.858" y1="380.412" x2="-2.00092" y2="380.412" gradientUnits="userSpaceOnUse">
<stop stop-color="white"/>
<stop offset="1" stop-color="#A8E9FD"/>
</linearGradient>
<linearGradient id="paint3_linear_1_4451" x1="115.248" y1="341.612" x2="31.3317" y2="515.613" gradientUnits="userSpaceOnUse">
<stop stop-color="white"/>
<stop offset="1" stop-color="#A8E9FD"/>
</linearGradient>
<clipPath id="clip0_1_4451">
<rect width="1926" height="665" fill="white" transform="translate(-243)"/>
</clipPath>
<clipPath id="clip1_1_4451">
<rect width="436" height="372" fill="white" transform="translate(1005 147)"/>
</clipPath>
<clipPath id="clip2_1_4451">
<rect width="436" height="372" fill="white" transform="matrix(-1 0 0 1 434 147)"/>
</clipPath>
</defs>
</svg>
