<svg width="252" height="251" viewBox="0 0 252 251" fill="none" xmlns="http://www.w3.org/2000/svg">
<mask id="mask0_1_16938" style="mask-type:luminance" maskUnits="userSpaceOnUse" x="0" y="0" width="252" height="251">
<path d="M0.842392 0.0214844H251.139V250.464H0.842392V0.0214844Z" fill="white"/>
</mask>
<g mask="url(#mask0_1_16938)">
<path d="M230.023 0.0205078H0.843491V229.431L230.023 0.0205078Z" fill="#0048B9"/>
<path d="M56.8308 -1.33639L38.8141 -55.418L92.8642 -37.3908L110.881 16.6908L56.8308 -1.33639Z" fill="#0048B9"/>
<path d="M92.8644 -37.3905L110.881 16.6911L119.986 7.67752L101.97 -46.501L92.8644 -37.3905Z" fill="#FF4A2A"/>
<path d="M39.5867 16.0125L21.4731 -38.166L75.62 -20.1388L93.6367 34.0397L39.5867 16.0125Z" fill="#0048B9"/>
<path d="M75.6203 -20.1387L93.637 34.0397L102.742 24.9292L84.6286 -29.1523L75.6203 -20.1387Z" fill="#FFCC0E"/>
<path d="M22.7332 32.7798L4.71648 -21.3018L58.7665 -3.27457L76.7832 50.807L22.7332 32.7798Z" fill="#0048B9"/>
<path d="M58.7668 -3.27425L76.7835 50.8073L85.8887 41.7937L67.872 -12.3848L58.7668 -3.27425Z" fill="#3A95FF"/>
<path d="M5.49292 50.1287L-12.6206 -4.0498L41.5263 13.9774L59.543 68.1559L5.49292 50.1287Z" fill="#0048B9"/>
<path d="M41.5268 13.9773L-12.6201 -4.04988L-3.51488 -13.0635L50.5352 4.96371L41.5268 13.9773Z" fill="#FFC1D2"/>
<path d="M41.5266 13.9775L59.5432 68.156L68.6484 59.0455L50.5349 4.96387L41.5266 13.9775Z" fill="#FF4A2A"/>
<path d="M-11.8461 67.3806L-29.8628 13.2021L24.2841 31.2293L42.3008 85.4078L-11.8461 67.3806Z" fill="#0048B9"/>
<path d="M24.2846 31.2293L-29.8623 13.2021L-20.7571 4.18848L33.293 22.2157L24.2846 31.2293Z" fill="#3A95FF"/>
<path d="M24.2836 31.2294L42.3002 85.4079L51.3086 76.3943L33.2919 22.2158L24.2836 31.2294Z" fill="#FFCC0E"/>
<path d="M-28.6047 84.2439L-46.7183 30.0654L7.42862 48.0926L25.4453 102.271L-28.6047 84.2439Z" fill="#0048B9"/>
<path d="M7.42889 48.0927L25.4456 102.271L34.5508 93.1607L16.4372 39.0791L7.42889 48.0927Z" fill="#3A95FF"/>
<path d="M7.42916 48.0925L-46.7178 30.0654L-37.6126 21.0518L16.4375 39.0789L7.42916 48.0925Z" fill="#FFCC0E"/>
<path d="M-45.9418 101.497L-63.9585 47.3184L-9.8116 65.3456L8.20508 119.524L-45.9418 101.497Z" fill="#0048B9"/>
<path d="M-9.81213 65.3456L8.20455 119.524L17.2129 110.511L-0.803799 56.332L-9.81213 65.3456Z" fill="#FF4A2A"/>
<path d="M176.408 17.5783L167.574 8.73633L176.411 -0.103104L185.245 8.73883L176.408 17.5783Z" fill="#FFF5EE"/>
<path d="M158.701 17.546L149.867 8.7041L158.704 -0.13533L167.538 8.7066L158.701 17.546Z" fill="#FFF5EE"/>
<path d="M158.735 35.2013L149.9 26.3594L158.737 17.5199L167.571 26.3619L158.735 35.2013Z" fill="#FFF5EE"/>
<path d="M141.096 35.2394L132.262 26.3975L141.098 17.558L149.933 26.4L141.096 35.2394Z" fill="#FFF5EE"/>
<path d="M141.063 52.963L132.229 44.1211L141.065 35.2817L149.9 44.1236L141.063 52.963Z" fill="#FFF5EE"/>
<path d="M123.356 52.9318L114.521 44.0898L123.358 35.2504L132.193 44.0923L123.356 52.9318Z" fill="#FFF5EE"/>
<path d="M123.653 70.3322L114.818 61.4902L123.655 52.6508L132.489 61.4927L123.653 70.3322Z" fill="#FFF5EE"/>
<path d="M106.012 70.3683L97.1777 61.5264L106.015 52.6869L114.849 61.5289L106.012 70.3683Z" fill="#FFF5EE"/>
<path d="M106.047 88.0236L97.2129 79.1816L106.05 70.3422L114.884 79.1842L106.047 88.0236Z" fill="#FFF5EE"/>
<path d="M88.3401 87.9913L79.5059 79.1494L88.3426 70.31L97.1769 79.1519L88.3401 87.9913Z" fill="#FFF5EE"/>
<path d="M88.3069 105.715L79.4727 96.873L88.3094 88.0336L97.1437 96.8755L88.3069 105.715Z" fill="#FFF5EE"/>
<path d="M70.6683 105.753L61.834 96.9111L70.6708 88.0717L79.505 96.9136L70.6683 105.753Z" fill="#FFF5EE"/>
<path d="M70.6663 123.405L61.832 114.563L70.6688 105.724L79.5031 114.566L70.6663 123.405Z" fill="#FFF5EE"/>
<path d="M52.9593 123.374L44.125 114.532L52.9618 105.693L61.796 114.535L52.9593 123.374Z" fill="#FFF5EE"/>
<path d="M52.9944 141.029L44.1602 132.188L52.9969 123.348L61.8312 132.19L52.9944 141.029Z" fill="#FFF5EE"/>
<path d="M35.3558 141.068L26.5215 132.226L35.3583 123.386L44.1925 132.228L35.3558 141.068Z" fill="#FFF5EE"/>
<path d="M35.3226 158.791L26.4883 149.949L35.3251 141.11L44.1593 149.952L35.3226 158.791Z" fill="#FFF5EE"/>
<path d="M17.6136 158.76L8.7793 149.918L17.6161 141.079L26.4503 149.92L17.6136 158.76Z" fill="#FFF5EE"/>
<path d="M17.9065 176.166L9.07227 167.324L17.909 158.485L26.7433 167.327L17.9065 176.166Z" fill="#FFF5EE"/>
<path d="M0.199508 176.136L-8.63477 167.294L0.202006 158.455L9.03628 167.296L0.199508 176.136Z" fill="#FFF5EE"/>
<path d="M0.234664 193.791L-8.59961 184.949L0.237184 176.11L9.07146 184.952L0.234664 193.791Z" fill="#FFF5EE"/>
</g>
</svg>
