<svg width="196" height="193" viewBox="0 0 196 193" fill="none" xmlns="http://www.w3.org/2000/svg">
<g clip-path="url(#clip0_1_16814)">
<path d="M148.117 193.423C148.117 167.007 126.634 145.588 100.137 145.588C73.6401 145.588 52.1562 167.007 52.1562 193.423" fill="#FFF5EE"/>
<path d="M29.0599 55.0347C33.0809 55.0347 36.3406 51.7849 36.3406 47.7761C36.3406 43.7673 33.0809 40.5176 29.0599 40.5176C25.0389 40.5176 21.7793 43.7673 21.7793 47.7761C21.7793 51.7849 25.0389 55.0347 29.0599 55.0347Z" fill="#FFCC0E"/>
<path d="M35.5057 55.35C38.2457 53.1892 38.7099 49.2229 36.5425 46.4911C34.375 43.7594 30.3967 43.2966 27.6566 45.4575C24.9166 47.6184 24.4524 51.5846 26.6198 54.3164C28.7873 57.0481 32.7656 57.5109 35.5057 55.35Z" stroke="#000102" stroke-width="0.58" stroke-miterlimit="10" stroke-linecap="round" stroke-linejoin="round"/>
<path d="M181.298 16.6001C185.319 16.6001 188.579 13.3503 188.579 9.34156C188.579 5.33277 185.319 2.08301 181.298 2.08301C177.277 2.08301 174.018 5.33277 174.018 9.34156C174.018 13.3503 177.277 16.6001 181.298 16.6001Z" fill="#3A95FF"/>
<path d="M178.732 13.0302C182.226 13.0302 185.058 10.2066 185.058 6.7236C185.058 3.24056 182.226 0.416992 178.732 0.416992C175.238 0.416992 172.406 3.24056 172.406 6.7236C172.406 10.2066 175.238 13.0302 178.732 13.0302Z" stroke="#000102" stroke-width="0.58" stroke-miterlimit="10" stroke-linecap="round" stroke-linejoin="round"/>
<path d="M94.4678 106.498C96.5772 106.498 98.2871 104.794 98.2871 102.691C98.2871 100.588 96.5772 98.8828 94.4678 98.8828C92.3584 98.8828 90.6484 100.588 90.6484 102.691C90.6484 104.794 92.3584 106.498 94.4678 106.498Z" fill="#0048B9"/>
<path d="M94.4684 108.997C97.962 108.997 100.794 106.173 100.794 102.69C100.794 99.2074 97.962 96.3838 94.4684 96.3838C90.9747 96.3838 88.1426 99.2074 88.1426 102.69C88.1426 106.173 90.9747 108.997 94.4684 108.997Z" stroke="#000102" stroke-width="0.58" stroke-miterlimit="10" stroke-linecap="round" stroke-linejoin="round"/>
<path d="M11.5756 133.213C15.5965 133.213 18.8562 129.964 18.8562 125.955C18.8562 121.946 15.5965 118.696 11.5756 118.696C7.55457 118.696 4.29492 121.946 4.29492 125.955C4.29492 129.964 7.55457 133.213 11.5756 133.213Z" fill="#FF4A2A"/>
<path d="M10.6492 134.909C13.3341 132.681 13.6986 128.704 11.4634 126.028C9.22812 123.351 5.2396 122.988 2.55473 125.216C-0.130129 127.444 -0.494625 131.421 1.74061 134.098C3.97584 136.774 7.96436 137.138 10.6492 134.909Z" stroke="#000102" stroke-width="0.58" stroke-miterlimit="10" stroke-linecap="round" stroke-linejoin="round"/>
<path d="M109.23 20.1511C111.771 15.5068 110.054 9.68842 105.395 7.15543C100.737 4.62244 94.9008 6.33404 92.3601 10.9784C89.8194 15.6227 91.5362 21.4411 96.1947 23.9741C100.853 26.5071 106.689 24.7955 109.23 20.1511Z" fill="#FFC1D2"/>
<path d="M105.261 20.0121C107.731 17.5493 107.731 13.5562 105.261 11.0933C102.79 8.63047 98.7851 8.63048 96.3148 11.0933C93.8444 13.5562 93.8444 17.5493 96.3148 20.0121C98.7851 22.475 102.79 22.475 105.261 20.0121Z" stroke="#000102" stroke-width="0.58" stroke-miterlimit="10" stroke-linecap="round" stroke-linejoin="round"/>
<path d="M117.562 82.581V66.041" stroke="#000102" stroke-width="0.58" stroke-miterlimit="10" stroke-linecap="round" stroke-linejoin="round"/>
<path d="M121.5 84.1874V67.6475" stroke="#000102" stroke-width="0.58" stroke-miterlimit="10" stroke-linecap="round" stroke-linejoin="round"/>
<path d="M113.623 84.1874V67.6475" stroke="#000102" stroke-width="0.58" stroke-miterlimit="10" stroke-linecap="round" stroke-linejoin="round"/>
<path d="M116.369 65.0884C116.369 65.7428 116.906 66.2783 117.563 66.2783C118.219 66.2783 118.756 65.7428 118.756 65.0884C118.756 64.4339 118.219 63.8984 117.563 63.8984C116.906 63.9579 116.369 64.4339 116.369 65.0884Z" fill="#000102"/>
<path d="M120.309 67.7661C120.309 68.4206 120.846 68.956 121.502 68.956C122.159 68.956 122.696 68.4206 122.696 67.7661C122.696 67.1116 122.159 66.5762 121.502 66.5762C120.846 66.5762 120.309 67.1116 120.309 67.7661Z" fill="#000102"/>
<path d="M112.49 67.7661C112.49 68.4206 113.027 68.956 113.684 68.956C114.34 68.956 114.877 68.4206 114.877 67.7661C114.877 67.1116 114.34 66.5762 113.684 66.5762C113.027 66.5762 112.49 67.1116 112.49 67.7661Z" fill="#000102"/>
<path d="M123.471 108.581C119.234 112.269 117.861 117.565 117.861 117.565C117.861 117.565 123.292 116.91 127.529 113.281C131.766 109.592 133.139 104.297 133.139 104.297C133.139 104.297 127.708 104.951 123.471 108.581Z" fill="#00B265"/>
<path d="M104.316 65.8613L117.565 79.129L130.873 65.8613L141.555 76.5707L117.565 100.488L93.5742 76.5707L104.316 65.8613Z" fill="#FFCC0E"/>
<path d="M111.238 83.9492L117.564 90.2558L123.949 83.9492L129.022 89.0659L117.564 100.489L106.105 89.0659L111.238 83.9492Z" fill="#00B265"/>
<path d="M91.9609 74.9656L117.563 100.489L143.164 74.9656" stroke="#000102" stroke-width="0.58" stroke-miterlimit="10" stroke-linecap="round" stroke-linejoin="round"/>
<path d="M94.4668 72.4666L117.562 95.4916L140.657 72.4666" stroke="#000102" stroke-width="0.58" stroke-miterlimit="10" stroke-linecap="round" stroke-linejoin="round"/>
<path d="M97.0332 69.908L117.562 90.3747L138.091 69.908" stroke="#000102" stroke-width="0.58" stroke-miterlimit="10" stroke-linecap="round" stroke-linejoin="round"/>
<path d="M99.8984 67.0525L117.563 84.6634L135.227 67.0525" stroke="#000102" stroke-width="0.58" stroke-miterlimit="10" stroke-linecap="round" stroke-linejoin="round"/>
<path d="M102.703 64.2556L117.563 79.1297L132.482 64.2556" stroke="#000102" stroke-width="0.58" stroke-miterlimit="10" stroke-linecap="round" stroke-linejoin="round"/>
<path d="M117.562 100.489V132.796" stroke="#000102" stroke-width="0.58" stroke-miterlimit="10" stroke-linecap="round" stroke-linejoin="round"/>
<path d="M82.7148 49.0253V32.4854" stroke="#000102" stroke-width="0.58" stroke-miterlimit="10" stroke-linecap="round" stroke-linejoin="round"/>
<path d="M86.6523 50.6318V34.0918" stroke="#000102" stroke-width="0.58" stroke-miterlimit="10" stroke-linecap="round" stroke-linejoin="round"/>
<path d="M78.7754 50.6318V34.0918" stroke="#000102" stroke-width="0.58" stroke-miterlimit="10" stroke-linecap="round" stroke-linejoin="round"/>
<path d="M81.5215 31.5327C81.5215 32.1872 82.0586 32.7226 82.715 32.7226C83.3715 32.7226 83.9086 32.1872 83.9086 31.5327C83.9086 30.8782 83.3715 30.3428 82.715 30.3428C82.0586 30.3428 81.5215 30.8782 81.5215 31.5327Z" fill="#000102"/>
<path d="M85.459 34.2104C85.459 34.8649 85.9961 35.4004 86.6525 35.4004C87.309 35.4004 87.8461 34.8649 87.8461 34.2104C87.8461 33.556 87.309 33.0205 86.6525 33.0205C85.9961 33.0205 85.459 33.556 85.459 34.2104Z" fill="#000102"/>
<path d="M77.582 34.2104C77.582 34.8649 78.1191 35.4004 78.7756 35.4004C79.432 35.4004 79.9691 34.8649 79.9691 34.2104C79.9691 33.556 79.432 33.0205 78.7756 33.0205C78.1191 33.0205 77.582 33.556 77.582 34.2104Z" fill="#000102"/>
<path d="M105.151 44.741V49.0842C105.151 61.3999 95.125 71.4548 82.7121 71.4548C70.3589 71.4548 60.2734 61.4594 60.2734 49.0842V44.741H105.151Z" fill="#0048B9"/>
<path d="M94.7659 44.7412V48.906C94.7659 55.51 89.3949 60.9242 82.7111 60.9242C76.0869 60.9242 70.6562 55.5695 70.6562 48.906V44.7412H94.7659Z" fill="#3A95FF"/>
<path d="M60.2734 41.2314V49.085C60.2734 61.4007 70.2992 71.4556 82.7121 71.4556C95.0653 71.4556 105.151 61.4602 105.151 49.085V41.2314" stroke="#000102" stroke-width="0.58" stroke-miterlimit="10" stroke-linecap="round" stroke-linejoin="round"/>
<path d="M65.5859 41.2314V49.085C65.5859 58.5449 73.2843 66.1604 82.7133 66.1604C92.202 66.1604 99.8407 58.4854 99.8407 49.085V41.2314" stroke="#000102" stroke-width="0.58" stroke-miterlimit="10" stroke-linecap="round" stroke-linejoin="round"/>
<path d="M70.8359 41.2314V49.085C70.8359 55.6295 76.1472 60.9247 82.7117 60.9247C89.2762 60.9247 94.5875 55.6295 94.5875 49.085V41.2314" stroke="#000102" stroke-width="0.58" stroke-miterlimit="10" stroke-linecap="round" stroke-linejoin="round"/>
<path d="M76.1484 41.2314V49.085C76.1484 52.7142 79.0726 55.6296 82.7129 55.6296C86.3533 55.6296 89.2775 52.7142 89.2775 49.085V41.2314" stroke="#000102" stroke-width="0.58" stroke-miterlimit="10" stroke-linecap="round" stroke-linejoin="round"/>
<path d="M80.1463 77.2855C83.0109 79.7843 82.8915 84.663 82.8915 84.663C82.8915 84.663 78.0576 85.496 75.1931 82.9971C72.3286 80.4983 72.448 75.6196 72.448 75.6196C72.448 75.6196 77.2818 74.7866 80.1463 77.2855Z" fill="#FFCC0E"/>
<path d="M82.7129 71.4551V128.274" stroke="#000102" stroke-width="0.58" stroke-miterlimit="10" stroke-linecap="round" stroke-linejoin="round"/>
<path d="M41.834 84.0077V67.4082" stroke="#000102" stroke-width="0.58" stroke-miterlimit="10" stroke-linecap="round" stroke-linejoin="round"/>
<path d="M45.7715 85.6141V69.0146" stroke="#000102" stroke-width="0.58" stroke-miterlimit="10" stroke-linecap="round" stroke-linejoin="round"/>
<path d="M37.8945 85.6141V69.0146" stroke="#000102" stroke-width="0.58" stroke-miterlimit="10" stroke-linecap="round" stroke-linejoin="round"/>
<path d="M40.6387 66.5161C40.6387 67.1706 41.1758 67.706 41.8322 67.706C42.4887 67.706 43.0258 67.1706 43.0258 66.5161C43.0258 65.8616 42.4887 65.3262 41.8322 65.3262C41.1758 65.3262 40.6387 65.8616 40.6387 66.5161Z" fill="#000102"/>
<path d="M44.5762 69.1343C44.5762 69.7887 45.1133 70.3242 45.7697 70.3242C46.4262 70.3242 46.9633 69.7887 46.9633 69.1343C46.9633 68.4798 46.4262 67.9443 45.7697 67.9443C45.1133 68.0038 44.5762 68.4798 44.5762 69.1343Z" fill="#000102"/>
<path d="M36.6992 69.1343C36.6992 69.7887 37.2363 70.3242 37.8928 70.3242C38.5492 70.3242 39.0863 69.7887 39.0863 69.1343C39.0863 68.4798 38.5492 67.9443 37.8928 67.9443C37.2363 68.0038 36.6992 68.4798 36.6992 69.1343Z" fill="#000102"/>
<path d="M64.0911 79.3086H19.2734V106.022H64.0911V79.3086Z" fill="#FFC1D2"/>
<path d="M53.5278 79.3086H29.8359V95.4916H53.5278V79.3086Z" fill="#FF4A2A"/>
<path d="M19.2734 75.7979V106.022H64.0911V75.7979" stroke="#000102" stroke-width="0.58" stroke-miterlimit="10" stroke-linecap="round" stroke-linejoin="round"/>
<path d="M24.5859 75.7979V100.727H58.8407V75.7979" stroke="#000102" stroke-width="0.58" stroke-miterlimit="10" stroke-linecap="round" stroke-linejoin="round"/>
<path d="M29.8359 75.7979V95.4911H53.5278V75.7979" stroke="#000102" stroke-width="0.58" stroke-miterlimit="10" stroke-linecap="round" stroke-linejoin="round"/>
<path d="M35.1484 75.7979V90.196H48.2774V75.7979" stroke="#000102" stroke-width="0.58" stroke-miterlimit="10" stroke-linecap="round" stroke-linejoin="round"/>
<path d="M39.1463 119.706C42.0109 122.205 41.8915 127.084 41.8915 127.084C41.8915 127.084 37.0576 127.917 34.1931 125.418C31.3286 122.919 31.448 118.04 31.448 118.04C31.448 118.04 36.2222 117.208 39.1463 119.706Z" fill="#0048B9"/>
<path d="M41.7129 106.022V164.686" stroke="#000102" stroke-width="0.58" stroke-miterlimit="10" stroke-linecap="round" stroke-linejoin="round"/>
<path d="M158.621 58.0674V167.124" stroke="#000102" stroke-width="0.58" stroke-miterlimit="10" stroke-linecap="round" stroke-linejoin="round"/>
<path d="M158.623 34.8642V18.3242" stroke="#000102" stroke-width="0.58" stroke-miterlimit="10" stroke-linecap="round" stroke-linejoin="round"/>
<path d="M162.561 36.4706V19.9307" stroke="#000102" stroke-width="0.58" stroke-miterlimit="10" stroke-linecap="round" stroke-linejoin="round"/>
<path d="M154.684 36.4706V19.9307" stroke="#000102" stroke-width="0.58" stroke-miterlimit="10" stroke-linecap="round" stroke-linejoin="round"/>
<path d="M157.428 17.3725C157.428 18.027 157.965 18.5625 158.621 18.5625C159.278 18.5625 159.815 18.027 159.815 17.3725C159.815 16.7181 159.278 16.1826 158.621 16.1826C157.965 16.1826 157.428 16.7181 157.428 17.3725Z" fill="#000102"/>
<path d="M161.365 20.0503C161.365 20.7047 161.902 21.2402 162.559 21.2402C163.215 21.2402 163.752 20.7047 163.752 20.0503C163.752 19.3958 163.215 18.8604 162.559 18.8604C161.902 18.8604 161.365 19.3958 161.365 20.0503Z" fill="#000102"/>
<path d="M153.488 20.0503C153.488 20.7047 154.025 21.2402 154.682 21.2402C155.338 21.2402 155.875 20.7047 155.875 20.0503C155.875 19.3958 155.338 18.8604 154.682 18.8604C154.025 18.8604 153.488 19.3958 153.488 20.0503Z" fill="#000102"/>
<path d="M190.787 30.3428C188.52 45.9903 174.973 58.0681 158.621 58.0681C142.27 58.0681 128.723 45.9903 126.455 30.3428H190.787Z" fill="#FF4A2A"/>
<path d="M140.955 30.3428C143.163 38.4938 149.489 43.9674 158.62 43.9674C167.691 43.9674 174.136 38.0178 176.284 30.3428H140.955Z" fill="#FFC1D2"/>
<path d="M144.775 25.6428C144.775 33.2583 150.982 39.446 158.621 39.446C166.259 39.446 172.466 33.2583 172.466 25.6428" stroke="#000102" stroke-width="0.58" stroke-miterlimit="10" stroke-linecap="round" stroke-linejoin="round"/>
<path d="M140.18 25.6428C140.18 35.8167 148.415 44.0272 158.62 44.0272C168.825 44.0272 177.06 35.8167 177.06 25.6428" stroke="#000102" stroke-width="0.58" stroke-miterlimit="10" stroke-linecap="round" stroke-linejoin="round"/>
<path d="M135.586 25.6428C135.586 38.3155 145.91 48.6084 158.621 48.6084C171.333 48.6084 181.657 38.3155 181.657 25.6428" stroke="#000102" stroke-width="0.58" stroke-miterlimit="10" stroke-linecap="round" stroke-linejoin="round"/>
<path d="M130.871 25.6428C130.871 40.9334 143.284 53.3086 158.621 53.3086C173.958 53.3086 186.371 40.9334 186.371 25.6428" stroke="#000102" stroke-width="0.58" stroke-miterlimit="10" stroke-linecap="round" stroke-linejoin="round"/>
<path d="M126.096 25.6428C126.096 43.5512 140.657 58.0683 158.62 58.0683C176.583 58.0683 191.144 43.5512 191.144 25.6428" stroke="#000102" stroke-width="0.58" stroke-miterlimit="10" stroke-linecap="round" stroke-linejoin="round"/>
<path d="M196.038 97.8125V193.423H100.137L196.038 97.8125Z" fill="#00B265"/>
<path d="M148.058 83.7703L149.788 81.2715L149.669 84.2463L152.474 83.2944L150.683 85.6147L153.548 86.5072L150.683 87.3401L152.474 89.6605L149.669 88.7085L149.788 91.6833L148.058 89.1845L146.387 91.6833L146.446 88.7085L143.641 89.6605L145.491 87.3401L142.627 86.5072L145.491 85.6147L143.641 83.2944L146.446 84.2463L146.387 81.2715L148.058 83.7703Z" fill="#FFC1D2"/>
<path d="M55.6173 117.267L57.2882 114.828L57.1689 117.803L60.0334 116.792L58.1834 119.171L61.0479 120.004L58.1834 120.837L60.0334 123.217L57.1689 122.206L57.2882 125.18L55.6173 122.741L53.8866 125.18L54.006 122.206L51.1415 123.217L52.9915 120.837L50.127 120.004L52.9915 119.171L51.1415 116.792L54.006 117.803L53.8866 114.828L55.6173 117.267Z" fill="#3A95FF"/>
<path d="M53.8868 21.0018L55.5578 18.5625L55.4981 21.5373L58.3029 20.5259L56.4529 22.9057L59.3174 23.7387L56.4529 24.5716L58.3029 26.9515L55.4981 25.94L55.5578 28.9149L53.8868 26.4755L52.1562 28.9149L52.2755 25.94L49.4707 26.9515L51.261 24.5716L48.3965 23.7387L51.261 22.9057L49.4707 20.5259L52.2755 21.5373L52.1562 18.5625L53.8868 21.0018Z" fill="#FF4A2A"/>
<path d="M142.627 2.43935L144.298 0L144.238 2.97482L147.043 1.96338L145.193 4.34323L148.058 5.17618L145.193 6.00913L147.043 8.38898L144.238 7.37754L144.298 10.3524L142.627 7.91301L140.896 10.3524L141.016 7.37754L138.211 8.38898L140.001 6.00913L137.137 5.17618L140.001 4.34323L138.211 1.96338L141.016 2.97482L140.896 0L142.627 2.43935Z" fill="#FFCC0E"/>
<path d="M134.99 193.424C134.99 174.266 119.414 158.678 100.139 158.678C80.9226 158.678 65.2871 174.206 65.2871 193.424" fill="#FFCC0E"/>
<path d="M117.504 193.423C117.504 183.844 109.746 176.109 100.138 176.109C90.5295 176.109 82.7715 183.844 82.7715 193.423" stroke="#000102" stroke-width="0.58" stroke-miterlimit="10" stroke-linecap="round" stroke-linejoin="round"/>
<path d="M123.292 193.422C123.292 180.69 112.908 170.338 100.137 170.338C87.3663 170.338 76.9824 180.69 76.9824 193.422" stroke="#000102" stroke-width="0.58" stroke-miterlimit="10" stroke-linecap="round" stroke-linejoin="round"/>
<path d="M129.022 193.423C129.022 177.478 116.072 164.627 100.138 164.627C84.2039 164.627 71.2539 177.538 71.2539 193.423" stroke="#000102" stroke-width="0.58" stroke-miterlimit="10" stroke-linecap="round" stroke-linejoin="round"/>
<path d="M134.988 193.423C134.988 174.265 119.412 158.677 100.137 158.677C80.9206 158.677 65.2852 174.205 65.2852 193.423" stroke="#000102" stroke-width="0.58" stroke-miterlimit="10" stroke-linecap="round" stroke-linejoin="round"/>
<path d="M140.957 193.423C140.957 170.933 122.696 152.728 100.138 152.728C77.5796 152.728 59.3184 170.933 59.3184 193.423" stroke="#000102" stroke-width="0.58" stroke-miterlimit="10" stroke-linecap="round" stroke-linejoin="round"/>
<path d="M148.12 193.424C148.12 167.008 126.636 145.589 100.14 145.589C73.6429 145.589 52.159 167.008 52.159 193.424H32.6445C32.6445 156.239 62.8413 126.134 100.14 126.134C137.438 126.134 167.635 156.239 167.635 193.424H148.12Z" fill="#0048B9"/>
<path d="M66.6601 134.999L76.4472 151.896C76.2682 152.015 76.0892 152.074 75.9101 152.193L66.123 135.356C66.3021 135.178 66.4811 135.118 66.6601 134.999Z" fill="#000102"/>
<path d="M34.9123 176.051C34.9123 175.932 34.972 175.873 34.972 175.754L53.83 180.811C53.7704 180.99 53.7107 181.168 53.651 181.406L34.793 176.349C34.8526 176.23 34.9123 176.111 34.9123 176.051Z" fill="#000102"/>
<path d="M52.6365 145.648L66.422 159.392C66.3026 159.511 66.1236 159.69 66.0042 159.809L52.2188 146.065C52.3381 145.946 52.4575 145.767 52.6365 145.648Z" fill="#000102"/>
<path d="M41.8355 159.511L58.7242 169.268C58.6048 169.447 58.5451 169.625 58.4258 169.804L41.5371 160.046C41.5968 159.868 41.7161 159.689 41.8355 159.511Z" fill="#000102"/>
<path d="M87.428 147.314L82.3555 128.514C82.5345 128.454 82.6539 128.454 82.8329 128.395C82.8926 128.395 82.8926 128.395 82.9522 128.395L88.0248 147.195C87.7861 147.195 87.6071 147.255 87.428 147.314Z" fill="#000102"/>
<path d="M141.853 169.804C141.734 169.625 141.674 169.447 141.555 169.268L158.443 159.511C158.563 159.689 158.622 159.868 158.742 160.046L141.853 169.804Z" fill="#000102"/>
<path d="M100.437 145.589C100.317 145.589 100.258 145.589 100.138 145.589C100.019 145.589 99.9592 145.589 99.8398 145.589V126.134C99.9592 126.134 100.019 126.134 100.138 126.134C100.258 126.134 100.317 126.134 100.437 126.134V145.589Z" fill="#000102"/>
<path d="M146.57 181.346C146.51 181.168 146.45 180.99 146.391 180.752L165.249 175.694C165.308 175.873 165.368 176.051 165.428 176.289L146.57 181.346Z" fill="#000102"/>
<path d="M134.156 135.296L124.369 152.134C124.19 152.015 124.011 151.955 123.832 151.836L133.619 134.939C133.798 135.118 133.977 135.177 134.156 135.296Z" fill="#000102"/>
<path d="M117.684 128.454C117.743 128.454 117.803 128.513 117.863 128.513L112.79 147.314C112.611 147.255 112.432 147.195 112.193 147.136L117.266 128.335C117.445 128.394 117.564 128.394 117.684 128.454Z" fill="#000102"/>
<path d="M148.061 146.065L134.275 159.809C134.156 159.69 133.977 159.511 133.857 159.392L147.643 145.648C147.822 145.767 147.941 145.946 148.061 146.065Z" fill="#000102"/>
</g>
<defs>
<clipPath id="clip0_1_16814">
<rect width="196.04" height="193.72" fill="white"/>
</clipPath>
</defs>
</svg>
