<svg width="460" height="455" viewBox="0 0 460 455" fill="none" xmlns="http://www.w3.org/2000/svg">
<g clip-path="url(#clip0_1_4615)">
<path d="M347.556 454.301C347.556 392.256 297.145 341.949 234.971 341.949C172.798 341.949 122.387 392.256 122.387 454.301" fill="#FFF5EE"/>
<path d="M68.195 129.261C77.6301 129.261 85.2788 121.628 85.2788 112.213C85.2788 102.797 77.6301 95.1641 68.195 95.1641C58.76 95.1641 51.1113 102.797 51.1113 112.213C51.1113 121.628 58.76 129.261 68.195 129.261Z" fill="#FFCC0E"/>
<path d="M83.3207 130.001C89.7502 124.926 90.8394 115.61 85.7535 109.194C80.6677 102.777 71.3327 101.69 64.9033 106.766C58.4738 111.841 57.3846 121.157 62.4705 127.573C67.5563 133.989 76.8913 135.076 83.3207 130.001Z" stroke="#000102" stroke-miterlimit="10" stroke-linecap="round" stroke-linejoin="round"/>
<path d="M425.414 38.9877C434.849 38.9877 442.497 31.3548 442.497 21.9391C442.497 12.5235 434.849 4.89062 425.414 4.89062C415.979 4.89062 408.33 12.5235 408.33 21.9391C408.33 31.3548 415.979 38.9877 425.414 38.9877Z" fill="#3A95FF"/>
<path d="M419.392 30.6033C427.59 30.6033 434.235 23.9715 434.235 15.7907C434.235 7.60988 427.59 0.978027 419.392 0.978027C411.194 0.978027 404.549 7.60988 404.549 15.7907C404.549 23.9715 411.194 30.6033 419.392 30.6033Z" stroke="#000102" stroke-miterlimit="10" stroke-linecap="round" stroke-linejoin="round"/>
<path d="M221.669 250.138C226.619 250.138 230.631 246.134 230.631 241.194C230.631 236.255 226.619 232.251 221.669 232.251C216.719 232.251 212.707 236.255 212.707 241.194C212.707 246.134 216.719 250.138 221.669 250.138Z" fill="#0048B9"/>
<path d="M221.669 256.007C229.867 256.007 236.513 249.375 236.513 241.194C236.513 233.014 229.867 226.382 221.669 226.382C213.472 226.382 206.826 233.014 206.826 241.194C206.826 249.375 213.472 256.007 221.669 256.007Z" stroke="#000102" stroke-miterlimit="10" stroke-linecap="round" stroke-linejoin="round"/>
<path d="M27.1657 312.882C36.6008 312.882 44.2495 305.249 44.2495 295.834C44.2495 286.418 36.6008 278.785 27.1657 278.785C17.7307 278.785 10.082 286.418 10.082 295.834C10.082 305.249 17.7307 312.882 27.1657 312.882Z" fill="#FF4A2A"/>
<path d="M24.9942 316.866C31.2941 311.632 32.1494 302.292 26.9045 296.005C21.6596 289.718 12.3007 288.864 6.00077 294.099C-0.299153 299.333 -1.15443 308.672 4.09045 314.959C9.33533 321.246 18.6942 322.1 24.9942 316.866Z" stroke="#000102" stroke-miterlimit="10" stroke-linecap="round" stroke-linejoin="round"/>
<path d="M256.309 47.3298C262.27 36.4214 258.242 22.7554 247.311 16.8061C236.38 10.8567 222.686 14.8768 216.724 25.7852C210.763 36.6936 214.791 50.3595 225.722 56.3089C236.653 62.2582 250.347 58.2382 256.309 47.3298Z" fill="#FFC1D2"/>
<path d="M246.997 47.0024C252.793 41.2177 252.793 31.8389 246.997 26.0543C241.2 20.2697 231.802 20.2697 226.006 26.0543C220.209 31.8389 220.209 41.2177 226.006 47.0023C231.802 52.787 241.2 52.787 246.997 47.0024Z" stroke="#000102" stroke-miterlimit="10" stroke-linecap="round" stroke-linejoin="round"/>
<path d="M275.859 193.962V155.114" stroke="#000102" stroke-miterlimit="10" stroke-linecap="round" stroke-linejoin="round"/>
<path d="M285.101 197.735V158.887" stroke="#000102" stroke-miterlimit="10" stroke-linecap="round" stroke-linejoin="round"/>
<path d="M266.617 197.735V158.887" stroke="#000102" stroke-miterlimit="10" stroke-linecap="round" stroke-linejoin="round"/>
<path d="M273.058 152.878C273.058 154.415 274.319 155.673 275.859 155.673C277.399 155.673 278.66 154.415 278.66 152.878C278.66 151.341 277.399 150.083 275.859 150.083C274.319 150.223 273.058 151.341 273.058 152.878Z" fill="#000102"/>
<path d="M282.301 159.166C282.301 160.704 283.561 161.961 285.101 161.961C286.642 161.961 287.902 160.704 287.902 159.166C287.902 157.629 286.642 156.372 285.101 156.372C283.561 156.372 282.301 157.629 282.301 159.166Z" fill="#000102"/>
<path d="M263.957 159.166C263.957 160.704 265.217 161.961 266.758 161.961C268.298 161.961 269.558 160.704 269.558 159.166C269.558 157.629 268.298 156.372 266.758 156.372C265.217 156.372 263.957 157.629 263.957 159.166Z" fill="#000102"/>
<path d="M289.723 255.029C279.781 263.693 276.56 276.13 276.56 276.13C276.56 276.13 289.303 274.593 299.245 266.069C309.187 257.405 312.408 244.968 312.408 244.968C312.408 244.968 299.665 246.505 289.723 255.029Z" fill="#00B265"/>
<path d="M244.774 154.694L275.86 185.857L307.087 154.694L332.153 179.848L275.86 236.024L219.568 179.848L244.774 154.694Z" fill="#FFCC0E"/>
<path d="M261.017 197.176L275.86 211.989L290.844 197.176L302.746 209.194L275.86 236.025L248.974 209.194L261.017 197.176Z" fill="#00B265"/>
<path d="M215.787 176.075L275.86 236.024L335.933 176.075" stroke="#000102" stroke-miterlimit="10" stroke-linecap="round" stroke-linejoin="round"/>
<path d="M221.668 170.206L275.86 224.286L330.051 170.206" stroke="#000102" stroke-miterlimit="10" stroke-linecap="round" stroke-linejoin="round"/>
<path d="M227.689 164.197L275.86 212.268L324.03 164.197" stroke="#000102" stroke-miterlimit="10" stroke-linecap="round" stroke-linejoin="round"/>
<path d="M234.412 157.489L275.861 198.853L317.31 157.489" stroke="#000102" stroke-miterlimit="10" stroke-linecap="round" stroke-linejoin="round"/>
<path d="M240.992 150.921L275.86 185.857L310.867 150.921" stroke="#000102" stroke-miterlimit="10" stroke-linecap="round" stroke-linejoin="round"/>
<path d="M275.859 236.024V311.904" stroke="#000102" stroke-miterlimit="10" stroke-linecap="round" stroke-linejoin="round"/>
<path d="M194.083 115.148V76.2993" stroke="#000102" stroke-miterlimit="10" stroke-linecap="round" stroke-linejoin="round"/>
<path d="M203.326 118.921V80.0723" stroke="#000102" stroke-miterlimit="10" stroke-linecap="round" stroke-linejoin="round"/>
<path d="M184.841 118.921V80.0723" stroke="#000102" stroke-miterlimit="10" stroke-linecap="round" stroke-linejoin="round"/>
<path d="M191.283 74.0634C191.283 75.6006 192.543 76.8582 194.084 76.8582C195.624 76.8582 196.884 75.6006 196.884 74.0634C196.884 72.5262 195.624 71.2686 194.084 71.2686C192.543 71.2686 191.283 72.5262 191.283 74.0634Z" fill="#000102"/>
<path d="M200.525 80.352C200.525 81.8891 201.786 83.1468 203.326 83.1468C204.866 83.1468 206.126 81.8891 206.126 80.352C206.126 78.8148 204.866 77.5571 203.326 77.5571C201.786 77.5571 200.525 78.8148 200.525 80.352Z" fill="#000102"/>
<path d="M182.041 80.352C182.041 81.8891 183.301 83.1468 184.842 83.1468C186.382 83.1468 187.642 81.8891 187.642 80.352C187.642 78.8148 186.382 77.5571 184.842 77.5571C183.301 77.5571 182.041 78.8148 182.041 80.352Z" fill="#000102"/>
<path d="M246.734 105.086V115.287C246.734 144.214 223.209 167.83 194.083 167.83C165.097 167.83 141.432 144.353 141.432 115.287V105.086H246.734Z" fill="#0048B9"/>
<path d="M222.369 105.086V114.868C222.369 130.379 209.766 143.096 194.083 143.096C178.54 143.096 165.797 130.519 165.797 114.868V105.086H222.369Z" fill="#3A95FF"/>
<path d="M141.432 96.8413V115.287C141.432 144.214 164.957 167.83 194.083 167.83C223.069 167.83 246.734 144.354 246.734 115.287V96.8413" stroke="#000102" stroke-miterlimit="10" stroke-linecap="round" stroke-linejoin="round"/>
<path d="M153.894 96.8413V115.287C153.894 137.506 171.958 155.393 194.083 155.393C216.348 155.393 234.272 137.366 234.272 115.287V96.8413" stroke="#000102" stroke-miterlimit="10" stroke-linecap="round" stroke-linejoin="round"/>
<path d="M166.217 96.8413V115.287C166.217 130.659 178.68 143.096 194.083 143.096C209.486 143.096 221.949 130.659 221.949 115.287V96.8413" stroke="#000102" stroke-miterlimit="10" stroke-linecap="round" stroke-linejoin="round"/>
<path d="M178.68 96.8413V115.287C178.68 123.812 185.541 130.659 194.083 130.659C202.625 130.659 209.486 123.812 209.486 115.287V96.8413" stroke="#000102" stroke-miterlimit="10" stroke-linecap="round" stroke-linejoin="round"/>
<path d="M188.062 181.525C194.783 187.394 194.503 198.853 194.503 198.853C194.503 198.853 183.161 200.81 176.439 194.94C169.718 189.071 169.998 177.612 169.998 177.612C169.998 177.612 181.34 175.656 188.062 181.525Z" fill="#FFCC0E"/>
<path d="M194.084 167.83V301.284" stroke="#000102" stroke-miterlimit="10" stroke-linecap="round" stroke-linejoin="round"/>
<path d="M98.1618 197.316V158.328" stroke="#000102" stroke-miterlimit="10" stroke-linecap="round" stroke-linejoin="round"/>
<path d="M107.404 201.089V162.101" stroke="#000102" stroke-miterlimit="10" stroke-linecap="round" stroke-linejoin="round"/>
<path d="M88.9198 201.089V162.101" stroke="#000102" stroke-miterlimit="10" stroke-linecap="round" stroke-linejoin="round"/>
<path d="M95.3612 156.231C95.3612 157.769 96.6215 159.026 98.1618 159.026C99.7022 159.026 100.962 157.769 100.962 156.231C100.962 154.694 99.7022 153.437 98.1618 153.437C96.6215 153.437 95.3612 154.694 95.3612 156.231Z" fill="#000102"/>
<path d="M104.604 162.38C104.604 163.917 105.864 165.175 107.404 165.175C108.945 165.175 110.205 163.917 110.205 162.38C110.205 160.843 108.945 159.585 107.404 159.585C105.864 159.725 104.604 160.843 104.604 162.38Z" fill="#000102"/>
<path d="M86.1192 162.38C86.1192 163.917 87.3795 165.175 88.9198 165.175C90.4602 165.175 91.7204 163.917 91.7204 162.38C91.7204 160.843 90.4602 159.585 88.9198 159.585C87.3795 159.725 86.1192 160.843 86.1192 162.38Z" fill="#000102"/>
<path d="M150.393 186.276H45.2303V249.02H150.393V186.276Z" fill="#FFC1D2"/>
<path d="M125.608 186.276H70.0157V224.286H125.608V186.276Z" fill="#FF4A2A"/>
<path d="M45.2303 178.031V249.02H150.393V178.031" stroke="#000102" stroke-miterlimit="10" stroke-linecap="round" stroke-linejoin="round"/>
<path d="M57.6931 178.031V236.583H138.071V178.031" stroke="#000102" stroke-miterlimit="10" stroke-linecap="round" stroke-linejoin="round"/>
<path d="M70.0157 178.031V224.286H125.608V178.031" stroke="#000102" stroke-miterlimit="10" stroke-linecap="round" stroke-linejoin="round"/>
<path d="M82.4785 178.031V211.849H113.285V178.031" stroke="#000102" stroke-miterlimit="10" stroke-linecap="round" stroke-linejoin="round"/>
<path d="M91.8605 281.161C98.5819 287.03 98.3019 298.489 98.3019 298.489C98.3019 298.489 86.9594 300.445 80.2379 294.576C73.5165 288.707 73.7965 277.248 73.7965 277.248C73.7965 277.248 84.999 275.292 91.8605 281.161Z" fill="#0048B9"/>
<path d="M97.8827 249.02V386.806" stroke="#000102" stroke-miterlimit="10" stroke-linecap="round" stroke-linejoin="round"/>
<path d="M372.201 136.388V392.535" stroke="#000102" stroke-miterlimit="10" stroke-linecap="round" stroke-linejoin="round"/>
<path d="M372.201 81.8888V43.0405" stroke="#000102" stroke-miterlimit="10" stroke-linecap="round" stroke-linejoin="round"/>
<path d="M381.443 85.6618V46.8135" stroke="#000102" stroke-miterlimit="10" stroke-linecap="round" stroke-linejoin="round"/>
<path d="M362.959 85.6618V46.8135" stroke="#000102" stroke-miterlimit="10" stroke-linecap="round" stroke-linejoin="round"/>
<path d="M369.4 40.8046C369.4 42.3418 370.661 43.5994 372.201 43.5994C373.741 43.5994 375.001 42.3418 375.001 40.8046C375.001 39.2674 373.741 38.0098 372.201 38.0098C370.661 38.0098 369.4 39.2674 369.4 40.8046Z" fill="#000102"/>
<path d="M378.643 47.0932C378.643 48.6303 379.903 49.888 381.443 49.888C382.984 49.888 384.244 48.6303 384.244 47.0932C384.244 45.556 382.984 44.2983 381.443 44.2983C379.903 44.2983 378.643 45.556 378.643 47.0932Z" fill="#000102"/>
<path d="M360.158 47.0932C360.158 48.6303 361.419 49.888 362.959 49.888C364.499 49.888 365.759 48.6303 365.759 47.0932C365.759 45.556 364.499 44.2983 362.959 44.2983C361.419 44.2983 360.158 45.556 360.158 47.0932Z" fill="#000102"/>
<path d="M447.678 71.2686C442.356 108.021 410.569 136.388 372.201 136.388C333.833 136.388 302.046 108.021 296.725 71.2686H447.678Z" fill="#FF4A2A"/>
<path d="M330.752 71.2686C335.933 90.4132 350.776 103.269 372.201 103.269C393.486 103.269 408.609 89.2953 413.65 71.2686H330.752Z" fill="#FFC1D2"/>
<path d="M339.715 60.2285C339.715 78.1155 354.278 92.6487 372.202 92.6487C390.126 92.6487 404.689 78.1155 404.689 60.2285" stroke="#000102" stroke-miterlimit="10" stroke-linecap="round" stroke-linejoin="round"/>
<path d="M328.932 60.2285C328.932 84.1244 348.256 103.409 372.201 103.409C396.146 103.409 415.471 84.1244 415.471 60.2285" stroke="#000102" stroke-miterlimit="10" stroke-linecap="round" stroke-linejoin="round"/>
<path d="M318.15 60.2285C318.15 89.9936 342.376 114.169 372.202 114.169C402.029 114.169 426.254 89.9936 426.254 60.2285" stroke="#000102" stroke-miterlimit="10" stroke-linecap="round" stroke-linejoin="round"/>
<path d="M307.088 60.2285C307.088 96.1422 336.214 125.209 372.202 125.209C408.19 125.209 437.316 96.1422 437.316 60.2285" stroke="#000102" stroke-miterlimit="10" stroke-linecap="round" stroke-linejoin="round"/>
<path d="M295.885 60.2285C295.885 102.291 330.052 136.388 372.201 136.388C414.351 136.388 448.518 102.291 448.518 60.2285" stroke="#000102" stroke-miterlimit="10" stroke-linecap="round" stroke-linejoin="round"/>
<path d="M460 229.736V454.301H234.971L460 229.736Z" fill="#00B265"/>
<path d="M347.415 196.757L351.476 190.888L351.195 197.875L357.777 195.639L353.576 201.089L360.297 203.185L353.576 205.141L357.777 210.591L351.195 208.355L351.476 215.343L347.415 209.473L343.494 215.343L343.634 208.355L337.052 210.591L341.393 205.141L334.672 203.185L341.393 201.089L337.052 195.639L343.634 197.875L343.494 190.888L347.415 196.757Z" fill="#FFC1D2"/>
<path d="M130.508 275.432L134.429 269.702L134.149 276.689L140.87 274.314L136.529 279.903L143.251 281.86L136.529 283.816L140.87 289.406L134.149 287.03L134.429 294.017L130.508 288.288L126.447 294.017L126.727 287.03L120.006 289.406L124.346 283.816L117.625 281.86L124.346 279.903L120.006 274.314L126.727 276.689L126.447 269.702L130.508 275.432Z" fill="#3A95FF"/>
<path d="M126.447 49.329L130.368 43.5996L130.228 50.5867L136.81 48.2111L132.469 53.8008L139.19 55.7572L132.469 57.7136L136.81 63.3032L130.228 60.9276L130.368 67.9147L126.447 62.1853L122.386 67.9147L122.666 60.9276L116.085 63.3032L120.286 57.7136L113.564 55.7572L120.286 53.8008L116.085 48.2111L122.666 50.5867L122.386 43.5996L126.447 49.329Z" fill="#FF4A2A"/>
<path d="M334.672 5.72942L338.593 0L338.453 6.9871L345.034 4.61149L340.693 10.2012L347.415 12.1576L340.693 14.1139L345.034 19.7036L338.453 17.328L338.593 24.3151L334.672 18.5857L330.611 24.3151L330.891 17.328L324.31 19.7036L328.511 14.1139L321.789 12.1576L328.511 10.2012L324.31 4.61149L330.891 6.9871L330.611 0L334.672 5.72942Z" fill="#FFCC0E"/>
<path d="M316.749 454.301C316.749 409.304 280.201 372.692 234.971 372.692C189.881 372.692 153.193 409.165 153.193 454.301" fill="#FFCC0E"/>
<path d="M275.72 454.301C275.72 431.803 257.516 413.636 234.971 413.636C212.427 413.636 194.223 431.803 194.223 454.301" stroke="#000102" stroke-miterlimit="10" stroke-linecap="round" stroke-linejoin="round"/>
<path d="M289.304 454.301C289.304 424.396 264.939 400.081 234.972 400.081C205.006 400.081 180.64 424.396 180.64 454.301" stroke="#000102" stroke-miterlimit="10" stroke-linecap="round" stroke-linejoin="round"/>
<path d="M302.747 454.301C302.747 416.85 272.36 386.666 234.972 386.666C197.584 386.666 167.197 416.99 167.197 454.301" stroke="#000102" stroke-miterlimit="10" stroke-linecap="round" stroke-linejoin="round"/>
<path d="M316.751 454.301C316.751 409.304 280.203 372.692 234.973 372.692C189.883 372.692 153.195 409.164 153.195 454.301" stroke="#000102" stroke-miterlimit="10" stroke-linecap="round" stroke-linejoin="round"/>
<path d="M330.753 454.301C330.753 401.479 287.904 358.718 234.972 358.718C182.041 358.718 139.191 401.479 139.191 454.301" stroke="#000102" stroke-miterlimit="10" stroke-linecap="round" stroke-linejoin="round"/>
<path d="M347.557 454.301C347.557 392.256 297.146 341.949 234.972 341.949C172.799 341.949 122.388 392.256 122.388 454.301H76.5977C76.5977 366.962 147.453 296.253 234.972 296.253C322.491 296.253 393.347 366.962 393.347 454.301H347.557Z" fill="#0048B9"/>
<path d="M156.415 317.074L179.38 356.761C178.959 357.041 178.539 357.18 178.119 357.46L155.154 317.913C155.574 317.494 155.994 317.354 156.415 317.074Z" fill="#000102"/>
<path d="M81.9188 413.497C81.9188 413.217 82.0589 413.077 82.0589 412.798L126.308 424.676C126.168 425.095 126.028 425.514 125.888 426.073L81.6388 414.195C81.7788 413.916 81.9188 413.636 81.9188 413.497Z" fill="#000102"/>
<path d="M123.508 342.088L155.855 374.369C155.575 374.648 155.154 375.067 154.874 375.347L122.527 343.067C122.807 342.787 123.087 342.368 123.508 342.088Z" fill="#000102"/>
<path d="M98.163 374.648L137.792 397.566C137.512 397.985 137.372 398.404 137.092 398.824L97.4629 375.906C97.6029 375.487 97.883 375.067 98.163 374.648Z" fill="#000102"/>
<path d="M393.347 453.603C393.347 453.882 393.347 454.022 393.347 454.301H347.557C347.557 454.022 347.557 453.882 347.557 453.603H393.347Z" fill="#000102"/>
<path d="M205.145 346.001L193.242 301.843C193.662 301.703 193.942 301.703 194.362 301.563C194.502 301.563 194.502 301.563 194.642 301.563L206.545 345.722C205.985 345.722 205.565 345.861 205.145 346.001Z" fill="#000102"/>
<path d="M332.852 398.824C332.572 398.404 332.432 397.985 332.152 397.566L371.781 374.648C372.061 375.067 372.201 375.487 372.481 375.906L332.852 398.824Z" fill="#000102"/>
<path d="M122.388 453.603C122.388 453.882 122.388 454.022 122.388 454.301H76.5977C76.5977 454.022 76.5977 453.882 76.5977 453.603H122.388Z" fill="#000102"/>
<path d="M235.672 341.949C235.392 341.949 235.252 341.949 234.972 341.949C234.692 341.949 234.552 341.949 234.271 341.949V296.253C234.552 296.253 234.692 296.253 234.972 296.253C235.252 296.253 235.392 296.253 235.672 296.253V341.949Z" fill="#000102"/>
<path d="M343.916 425.933C343.776 425.514 343.636 425.095 343.496 424.536L387.746 412.658C387.886 413.077 388.026 413.496 388.166 414.055L343.916 425.933Z" fill="#000102"/>
<path d="M314.79 317.773L291.825 357.32C291.405 357.041 290.985 356.901 290.564 356.622L313.529 316.935C313.95 317.354 314.37 317.494 314.79 317.773Z" fill="#000102"/>
<path d="M276.141 301.703C276.281 301.703 276.421 301.843 276.561 301.843L264.658 346.001C264.238 345.861 263.818 345.722 263.258 345.582L275.16 301.423C275.58 301.563 275.861 301.563 276.141 301.703Z" fill="#000102"/>
<path d="M347.417 343.067L315.07 375.347C314.79 375.067 314.37 374.648 314.09 374.369L346.437 342.088C346.857 342.368 347.137 342.787 347.417 343.067Z" fill="#000102"/>
</g>
<defs>
<clipPath id="clip0_1_4615">
<rect width="460" height="455" fill="white"/>
</clipPath>
</defs>
</svg>
