<svg width="432" height="432" viewBox="0 0 432 432" fill="none" xmlns="http://www.w3.org/2000/svg">
<mask id="mask0_1_4741" style="mask-type:luminance" maskUnits="userSpaceOnUse" x="0" y="0" width="432" height="432">
<path d="M0.454681 0.0361328H432V431.833H0.454681V0.0361328Z" fill="white"/>
</mask>
<g mask="url(#mask0_1_4741)">
<path d="M395.592 0.0356445H0.453949V395.571L395.592 0.0356445Z" fill="#0048B9"/>
<path d="M96.9841 -2.30375L65.9209 -95.5479L159.111 -64.4665L190.174 28.7776L96.9841 -2.30375Z" fill="#0048B9"/>
<path d="M159.111 -64.466L190.174 28.7781L205.873 13.2374L174.81 -80.1738L159.111 -64.466Z" fill="#FF4A2A"/>
<path d="M67.2556 27.608L36.0253 -65.8032L129.382 -34.7219L160.445 58.6894L67.2556 27.608Z" fill="#0048B9"/>
<path d="M129.383 -34.7215L160.446 58.6897L176.145 42.9819L144.914 -50.2622L129.383 -34.7215Z" fill="#FFCC0E"/>
<path d="M38.1971 56.5165L7.13387 -36.7275L100.324 -5.64618L131.387 87.5979L38.1971 56.5165Z" fill="#0048B9"/>
<path d="M100.324 -5.64573L131.387 87.5984L147.086 72.0577L116.023 -21.3535L100.324 -5.64573Z" fill="#3A95FF"/>
<path d="M8.47041 86.4283L-22.7598 -6.98291L70.5969 24.0985L101.66 117.51L8.47041 86.4283Z" fill="#0048B9"/>
<path d="M70.5975 24.0986L-22.7592 -6.98276L-7.06056 -22.5234L86.1292 8.55792L70.5975 24.0986Z" fill="#FFC1D2"/>
<path d="M70.5975 24.0988L101.661 117.51L117.359 101.802L86.1291 8.55811L70.5975 24.0988Z" fill="#FF4A2A"/>
<path d="M-21.4234 116.173L-52.4866 22.7617L40.8701 53.8431L71.9333 147.254L-21.4234 116.173Z" fill="#0048B9"/>
<path d="M40.8705 53.8432L-52.4863 22.7619L-36.7877 7.22119L56.4021 38.3026L40.8705 53.8432Z" fill="#3A95FF"/>
<path d="M40.8697 53.8434L71.933 147.255L87.4646 131.714L56.4014 38.3027L40.8697 53.8434Z" fill="#FFCC0E"/>
<path d="M-50.3164 145.249L-81.5467 51.8379L11.81 82.9193L42.8733 176.33L-50.3164 145.249Z" fill="#0048B9"/>
<path d="M11.8106 82.9196L42.8739 176.331L58.5725 160.623L27.3423 67.3789L11.8106 82.9196Z" fill="#3A95FF"/>
<path d="M11.8107 82.9194L-81.5461 51.8381L-65.8475 36.2974L27.3423 67.3787L11.8107 82.9194Z" fill="#FFCC0E"/>
<path d="M-80.2103 174.994L-111.273 81.5825L-17.9167 112.664L13.1465 206.075L-80.2103 174.994Z" fill="#0048B9"/>
<path d="M-17.9171 112.664L13.1461 206.075L28.6777 190.535L-2.38552 97.1235L-17.9171 112.664Z" fill="#FF4A2A"/>
<path d="M303.151 30.3097L287.92 15.0649L303.156 -0.175458L318.387 15.0693L303.151 30.3097Z" fill="#FFF5EE"/>
<path d="M272.622 30.254L257.391 15.0093L272.626 -0.231122L287.858 15.0136L272.622 30.254Z" fill="#FFF5EE"/>
<path d="M272.681 60.6934L257.449 45.4487L272.685 30.2083L287.917 45.453L272.681 60.6934Z" fill="#FFF5EE"/>
<path d="M242.269 60.7589L227.037 45.5142L242.273 30.2738L257.504 45.5185L242.269 60.7589Z" fill="#FFF5EE"/>
<path d="M242.21 91.317L226.979 76.0723L242.214 60.8319L257.446 76.0766L242.21 91.317Z" fill="#FFF5EE"/>
<path d="M211.681 91.2623L196.449 76.0176L211.685 60.7772L226.917 76.0219L211.681 91.2623Z" fill="#FFF5EE"/>
<path d="M212.192 121.263L196.961 106.019L212.197 90.7782L227.428 106.023L212.192 121.263Z" fill="#FFF5EE"/>
<path d="M181.78 121.327L166.549 106.082L181.785 90.8416L197.016 106.086L181.78 121.327Z" fill="#FFF5EE"/>
<path d="M181.841 151.766L166.609 136.521L181.845 121.281L197.077 136.526L181.841 151.766Z" fill="#FFF5EE"/>
<path d="M151.312 151.71L136.08 136.465L151.316 121.225L166.547 136.47L151.312 151.71Z" fill="#FFF5EE"/>
<path d="M151.251 182.268L136.02 167.023L151.255 151.783L166.487 167.028L151.251 182.268Z" fill="#FFF5EE"/>
<path d="M120.841 182.334L105.609 167.089L120.845 151.849L136.077 167.094L120.841 182.334Z" fill="#FFF5EE"/>
<path d="M120.839 212.77L105.607 197.525L120.843 182.285L136.075 197.529L120.839 212.77Z" fill="#FFF5EE"/>
<path d="M90.3096 212.715L75.0781 197.471L90.3139 182.23L105.545 197.475L90.3096 212.715Z" fill="#FFF5EE"/>
<path d="M90.3682 243.155L75.1367 227.911L90.3725 212.67L105.604 227.915L90.3682 243.155Z" fill="#FFF5EE"/>
<path d="M59.9581 243.222L44.7266 227.977L59.9624 212.737L75.1939 227.981L59.9581 243.222Z" fill="#FFF5EE"/>
<path d="M59.8995 273.78L44.668 258.535L59.9038 243.295L75.1353 258.539L59.8995 273.78Z" fill="#FFF5EE"/>
<path d="M29.3682 273.726L14.1367 258.481L29.3725 243.241L44.604 258.486L29.3682 273.726Z" fill="#FFF5EE"/>
<path d="M29.8741 303.736L14.6426 288.491L29.8784 273.251L45.1099 288.496L29.8741 303.736Z" fill="#FFF5EE"/>
<path d="M-0.655213 303.684L-15.8867 288.439L-0.650905 273.199L14.5806 288.443L-0.655213 303.684Z" fill="#FFF5EE"/>
<path d="M-0.59662 334.124L-15.8281 318.879L-0.592275 303.638L14.6392 318.883L-0.59662 334.124Z" fill="#FFF5EE"/>
</g>
</svg>
