<svg width="107" height="19" viewBox="0 0 107 19" fill="none" xmlns="http://www.w3.org/2000/svg">
<g clip-path="url(#clip0_1_1348)">
<path d="M18.4616 9.5C18.4616 14.4703 14.4386 18.5 9.4808 18.5C4.52299 18.5 0.5 14.4703 0.5 9.5C0.5 4.52968 4.52299 0.5 9.4808 0.5C14.4386 0.5 18.4616 4.52968 18.4616 9.5Z" fill="#179379" stroke="black"/>
<path d="M62.4889 9.5C62.4889 14.4703 58.4659 18.5 53.5081 18.5C48.5503 18.5 44.5273 14.4703 44.5273 9.5C44.5273 4.5291 48.5339 0.5 53.5081 0.5C58.4659 0.5 62.4889 4.52968 62.4889 9.5Z" fill="#179379" stroke="black"/>
<path d="M106.501 9.5C106.501 14.4703 102.478 18.5 97.5199 18.5C92.5621 18.5 88.5391 14.4703 88.5391 9.5C88.5391 4.52968 92.5621 0.5 97.5199 0.5C102.478 0.5 106.501 4.52968 106.501 9.5Z" fill="#179379" stroke="black"/>
</g>
<defs>
<clipPath id="clip0_1_1348">
<rect width="107" height="19" fill="white"/>
</clipPath>
</defs>
</svg>
