<svg width="43" height="43" viewBox="0 0 43 43" fill="none" xmlns="http://www.w3.org/2000/svg">
<path d="M34.2104 7.03166H30.6946V5.27376C30.6946 4.80754 30.5094 4.36041 30.1797 4.03074C29.85 3.70108 29.4029 3.51587 28.9367 3.51587C28.4705 3.51587 28.0233 3.70108 27.6937 4.03074C27.364 4.36041 27.1788 4.80754 27.1788 5.27376V7.03166H16.6314V5.27376C16.6314 4.80754 16.4462 4.36041 16.1166 4.03074C15.7869 3.70108 15.3398 3.51587 14.8735 3.51587C14.4073 3.51587 13.9602 3.70108 13.6305 4.03074C13.3009 4.36041 13.1156 4.80754 13.1156 5.27376V7.03166H9.59986C8.20119 7.03166 6.85981 7.58728 5.8708 8.57629C4.88179 9.56529 4.32617 10.9067 4.32617 12.3053V33.4001C4.32617 34.7987 4.88179 36.1401 5.8708 37.1291C6.85981 38.1181 8.20119 38.6738 9.59986 38.6738H34.2104C35.6091 38.6738 36.9504 38.1181 37.9394 37.1291C38.9284 36.1401 39.4841 34.7987 39.4841 33.4001V12.3053C39.4841 10.9067 38.9284 9.56529 37.9394 8.57629C36.9504 7.58728 35.6091 7.03166 34.2104 7.03166ZM35.9683 33.4001C35.9683 33.8663 35.7831 34.3134 35.4534 34.6431C35.1237 34.9728 34.6766 35.158 34.2104 35.158H9.59986C9.13363 35.158 8.68651 34.9728 8.35684 34.6431C8.02717 34.3134 7.84196 33.8663 7.84196 33.4001V21.0948H35.9683V33.4001ZM35.9683 17.579H7.84196V12.3053C7.84196 11.8391 8.02717 11.392 8.35684 11.0623C8.68651 10.7327 9.13363 10.5474 9.59986 10.5474H13.1156V12.3053C13.1156 12.7716 13.3009 13.2187 13.6305 13.5484C13.9602 13.878 14.4073 14.0632 14.8735 14.0632C15.3398 14.0632 15.7869 13.878 16.1166 13.5484C16.4462 13.2187 16.6314 12.7716 16.6314 12.3053V10.5474H27.1788V12.3053C27.1788 12.7716 27.364 13.2187 27.6937 13.5484C28.0233 13.878 28.4705 14.0632 28.9367 14.0632C29.4029 14.0632 29.85 13.878 30.1797 13.5484C30.5094 13.2187 30.6946 12.7716 30.6946 12.3053V10.5474H34.2104C34.6766 10.5474 35.1237 10.7327 35.4534 11.0623C35.7831 11.392 35.9683 11.8391 35.9683 12.3053V17.579Z" fill="black"/>
</svg>
